PathFileType	4	(X/Y/Z)	C:/Users/opensim2020/Desktop/walking_exp_matlab/subject06_walking13_straight_02.trc	
DataRate	CameraRate	NumFrames	NumMarkers	Units	OrigDataRate	OrigDataStartFrame	OrigNumFrames	
100.00	100.00	6	50	mm	100.00	1611	199	
Frame#	Time	LFHD			RFHD			LBHD			RBHD			C7			T10			CLAV			STRN			RBAK			LSHO			LUPA			LELB			LFRM			LWRA			LWRB			LFIN			RSHO			RUPA			RELB			RFRM			RWRA			RWRB			RFIN			LASI			RASI			LPSI			RPSI			LTHI			LKNE			LTIB			LANK			LHEE			LTOE			RTHI			RKNE			RTIB			RANK			RHEE			RTOE			*39			*40			*41			*42			*43			*44			*45			*46			*47			*48			*49			
		X1	Y1	Z1	X2	Y2	Z2	X3	Y3	Z3	X4	Y4	Z4	X5	Y5	Z5	X6	Y6	Z6	X7	Y7	Z7	X8	Y8	Z8	X9	Y9	Z9	X10	Y10	Z10	X11	Y11	Z11	X12	Y12	Z12	X13	Y13	Z13	X14	Y14	Z14	X15	Y15	Z15	X16	Y16	Z16	X17	Y17	Z17	X18	Y18	Z18	X19	Y19	Z19	X20	Y20	Z20	X21	Y21	Z21	X22	Y22	Z22	X23	Y23	Z23	X24	Y24	Z24	X25	Y25	Z25	X26	Y26	Z26	X27	Y27	Z27	X28	Y28	Z28	X29	Y29	Z29	X30	Y30	Z30	X31	Y31	Z31	X32	Y32	Z32	X33	Y33	Z33	X34	Y34	Z34	X35	Y35	Z35	X36	Y36	Z36	X37	Y37	Z37	X38	Y38	Z38	X39	Y39	Z39	X40	Y40	Z40	X41	Y41	Z41	X42	Y42	Z42	X43	Y43	Z43	X44	Y44	Z44	X45	Y45	Z45	X46	Y46	Z46	X47	Y47	Z47	X48	Y48	Z48	X49	Y49	Z49	X50	Y50	Z50	

75	0.740	1524.15625	244.51195	1645.32983	1392.81885	253.70444	1632.13208	1533.14417	380.82486	1599.09521	1404.37439	388.35037	1591.96521	1478.96716	394.38312	1437.46338	1470.88367	433.01996	1107.32666	1470.05164	286.76175	1357.98987	1477.28894	248.90329	1181.89783	1410.01807	474.02081	1266.81519	1634.66101	330.32834	1392.90356	1715.29211	287.12836	1200.31055	1735.15039	253.85088	1093.95117	1754.16895	141.93939	995.64972	1707.01196	21.23638	960.09167	1740.15198	58.86437	909.90308	1741.00415	-28.39369	887.02582	1311.68079	341.55637	1388.98206	1235.87183	424.65723	1200.06104	1228.43201	443.86783	1079.02454	1213.14929	468.44724	960.85510	1242.69690	458.28357	808.01227	1205.15186	511.22992	829.25348	1204.02942	505.47369	743.91449	1581.59814	261.07114	943.75305	1361.00806	252.36282	953.12592	1544.75415	418.61621	973.77820	1375.81006	404.09583	974.27704	1625.92383	365.99652	635.26831	1600.10815	399.57983	473.41190	1591.20593	519.04968	242.13702	1542.63147	586.01788	84.07510	1499.92932	631.83929	79.88193	1533.76746	449.63336	38.57854	1295.88782	237.84959	624.38678	1328.04272	192.98663	507.69229	1332.64465	136.54942	257.16718	1375.99023	64.48628	84.37309	1425.58154	87.88840	49.80230	1373.69446	-93.05515	97.90848	1470.07495	345.78339	1688.95618																														 
76	0.750	1523.26746	234.27037	1644.27209	1391.96863	243.38457	1630.94360	1532.33398	370.50049	1597.82874	1403.45129	378.51660	1590.55310	1478.34106	383.73590	1436.20435	1470.30737	421.90384	1105.96985	1469.33972	275.98343	1356.82288	1476.75574	237.79388	1180.76038	1409.57471	463.26715	1265.36646	1634.04150	319.60120	1391.68555	1714.57263	276.41711	1199.07446	1734.33997	242.79631	1092.84595	1753.11731	130.01067	995.64124	1706.02405	8.97926	961.91827	1738.58997	45.82113	910.95563	1739.67712	-41.58870	889.39618	1310.97217	330.94205	1387.56152	1235.36401	413.84207	1198.77917	1227.68530	433.33740	1077.66760	1212.23792	458.08582	959.52942	1241.66345	447.80042	806.60699	1204.06580	501.02972	828.04980	1202.74976	495.51431	742.65747	1581.20435	249.97412	942.38232	1360.38354	241.07143	951.85010	1543.82751	407.54974	972.34790	1374.92273	392.95853	973.14789	1625.56775	356.45703	634.41364	1599.79321	391.13358	472.71957	1591.52930	514.69440	243.45311	1543.29395	584.57013	86.42771	1500.91687	630.62201	83.04183	1533.67444	449.04211	38.43189	1296.23608	225.37791	623.52917	1328.46484	180.14145	507.59241	1332.74207	125.33018	256.17328	1376.29578	54.26723	82.94662	1425.61304	77.85547	48.09099	1374.90002	-103.50102	96.83432	1469.16699	335.51056	1687.70496																														 
77	0.760	1522.34668	223.95758	1643.31628	1391.07153	232.90114	1629.89575	1531.36902	360.15204	1596.70105	1402.51343	368.07565	1589.27539	1477.54272	373.12219	1434.99255	1469.70898	410.71954	1104.68884	1468.62842	265.13852	1355.82959	1476.13123	226.64653	1179.81543	1409.09399	452.39587	1263.92798	1633.35596	308.87607	1390.71692	1713.72351	265.77829	1198.03052	1733.41956	231.95874	1091.82971	1751.57288	118.85484	995.35059	1704.88647	-2.78671	963.30139	1737.36951	33.55053	911.79840	1738.37317	-54.12991	891.19476	1310.26758	320.27295	1386.30835	1234.68689	403.06104	1197.45081	1226.87158	422.43225	1076.32520	1211.26819	447.18857	958.22797	1240.22034	437.07275	805.17169	1202.94861	490.20474	826.80402	1201.38611	484.65936	741.43579	1580.55066	238.69078	941.18744	1359.43298	229.64360	950.75458	1542.89380	396.19797	971.01434	1374.05542	381.40756	971.93231	1625.15796	346.58698	633.55548	1599.41907	382.35635	472.05423	1591.84729	510.03979	244.90991	1544.25354	583.21399	89.19363	1501.89124	629.49121	86.73806	1533.76538	448.70505	38.38583	1296.59753	212.74397	623.21356	1329.03076	167.11880	507.81244	1332.94678	114.89677	254.94136	1376.93506	46.68209	80.57924	1426.20898	70.72611	45.81150	1375.48145	-110.65778	93.57298	1468.14673	325.23608	1686.58801																														 
78	0.770	1521.39063	213.59033	1642.48926	1390.03137	222.51712	1628.89209	1530.42786	349.73401	1595.71338	1401.54272	357.57855	1588.11230	1476.73828	362.45728	1433.85889	1469.08423	399.35223	1103.49133	1467.77112	254.27435	1354.92224	1475.32300	215.43735	1178.97327	1408.54309	441.35226	1262.67554	1632.55237	298.02963	1389.85950	1712.72327	255.16109	1197.07104	1732.32617	221.24174	1090.93188	1750.53870	107.62048	995.02808	1703.79688	-14.07270	964.19946	1735.97510	21.88838	912.24420	1737.01782	-65.95007	892.38940	1309.46228	309.60858	1385.23206	1233.89160	392.11182	1196.18555	1226.03088	411.20453	1075.10815	1210.28540	435.83087	957.00385	1239.29492	425.52353	803.96423	1201.67065	478.73911	825.59674	1199.97583	473.23288	740.23627	1579.80078	227.06947	940.12598	1358.34448	217.88071	949.95221	1542.12634	384.51193	969.79388	1373.41858	369.69531	970.83374	1624.56213	336.39371	632.61987	1599.02087	373.05182	471.29797	1592.30554	504.96555	246.45435	1545.18860	581.53278	92.15761	1503.02002	628.02924	90.67484	1533.92224	448.32382	38.32437	1296.93945	199.59073	623.24554	1329.87170	154.01399	508.13824	1333.27283	105.48350	253.36591	1377.82751	41.43764	77.49543	1427.22827	66.11048	43.00490	1376.31226	-115.75383	88.76014	1467.09302	314.90604	1685.56616																														 
79	0.780	1520.33447	203.25668	1641.70215	1389.05347	212.00267	1628.04211	1529.37268	339.33926	1594.83362	1400.51526	346.98840	1587.11267	1475.76489	351.75626	1432.76880	1468.44641	387.72446	1102.40625	1466.85608	243.31323	1354.12292	1474.46362	204.00764	1178.28137	1407.85938	430.28244	1261.54993	1631.57092	287.16345	1389.09644	1711.60559	244.45850	1196.25598	1731.12292	210.83633	1090.10840	1749.34436	96.90446	994.61475	1702.65088	-24.91866	964.57880	1734.51929	10.76130	912.29114	1735.66125	-77.18165	892.97516	1308.57141	298.91919	1384.29553	1232.97766	381.19769	1194.90625	1225.06067	399.67905	1073.93982	1209.22656	424.09561	955.82452	1237.68457	413.63248	802.74774	1200.43762	466.73697	824.37354	1198.58191	460.73932	739.07666	1579.07104	215.14792	939.18982	1357.21753	205.77744	949.31549	1541.40918	372.56244	968.61987	1372.81067	357.50491	969.87750	1623.95728	325.92596	631.67963	1598.63806	363.20975	470.44284	1592.68103	499.68503	248.19182	1546.07922	579.47137	95.33599	1504.29871	626.13965	95.00677	1534.07104	447.92487	38.23959	1297.11841	186.47011	623.43976	1330.19983	140.63063	508.65665	1333.69690	96.87522	251.41031	1378.77185	38.24173	74.03899	1428.14783	63.80392	40.22359	1376.96289	-118.25249	83.01814	1465.97437	304.57068	1684.64343																														 
80	0.790	1519.32288	192.84474	1640.96619	1388.02100	201.50920	1627.25952	1528.28943	329.00867	1594.00183	1399.28198	336.56747	1586.22961	1474.79651	341.17685	1431.76428	1467.59875	375.82440	1101.35730	1465.80127	232.46637	1353.36536	1473.52283	192.29660	1177.77039	1407.06091	419.01978	1260.36316	1630.49634	276.31592	1388.47046	1710.39514	233.81870	1195.51318	1729.83020	200.60300	1089.25476	1748.03308	86.67807	994.02399	1701.41223	-35.32299	964.42230	1733.16882	0.20677	911.96954	1734.28833	-87.83188	892.87415	1307.61646	288.21988	1383.44702	1232.03552	369.87143	1193.90735	1224.05762	387.91461	1072.86975	1208.05127	411.99335	954.71960	1236.42517	400.98541	801.84290	1199.16248	454.20172	823.15906	1197.02734	447.98947	737.97339	1578.23694	203.05392	938.24457	1356.16882	193.24843	948.92365	1540.69580	360.23102	967.53412	1372.24634	344.99744	969.12714	1623.19690	315.34531	630.81616	1598.26575	353.15454	469.75333	1592.98425	494.10745	250.21634	1547.06665	577.35260	98.97861	1505.32434	624.18518	99.87194	1534.32104	447.73151	38.23001	1297.33752	173.15808	623.64514	1330.22070	127.59772	509.20630	1334.19958	89.44966	249.20256	1379.99475	36.47538	70.48015	1429.12915	62.88499	37.46391	1378.21814	-119.80930	76.70174	1464.86926	294.22577	1683.82153																														 
